<svg width="14" height="14" viewBox="0 0 14 14" fill="none" xmlns="http://www.w3.org/2000/svg">
<path d="M7 13.6666C3.318 13.6666 0.333332 10.6819 0.333332 6.99992C0.333332 3.31792 3.318 0.333252 7 0.333252C10.682 0.333252 13.6667 3.31792 13.6667 6.99992C13.6667 10.6819 10.682 13.6666 7 13.6666ZM7 12.3333C8.41449 12.3333 9.77104 11.7713 10.7712 10.7712C11.7714 9.77096 12.3333 8.41441 12.3333 6.99992C12.3333 5.58543 11.7714 4.22888 10.7712 3.22868C9.77104 2.22849 8.41449 1.66659 7 1.66659C5.58551 1.66659 4.22896 2.22849 3.22876 3.22868C2.22857 4.22888 1.66667 5.58543 1.66667 6.99992C1.66667 8.41441 2.22857 9.77096 3.22876 10.7712C4.22896 11.7713 5.58551 12.3333 7 12.3333ZM7.66667 6.99992H10.3333V8.33325H6.33333V3.66659H7.66667V6.99992Z" fill="#9DA3AB"/>
</svg>
