<svg width="14" height="14" viewBox="0 0 14 14" fill="none" xmlns="http://www.w3.org/2000/svg">
<path d="M3.15668 3.30192C2.30671 4.18411 1.78634 5.33202 1.68306 6.5527C1.57977 7.77337 1.89986 8.99239 2.58952 10.0049C3.27917 11.0173 4.29635 11.7615 5.47008 12.1123C6.64382 12.4631 7.90254 12.3992 9.03468 11.9313C9.11134 11.4313 8.94334 10.9513 8.87468 10.7833C8.72134 10.4099 8.21601 9.77192 7.37268 8.88725C7.14734 8.65059 7.16201 8.46859 7.24268 7.92925L7.25134 7.86859C7.30601 7.49925 7.39801 7.28059 8.64134 7.08325C9.27334 6.98325 9.43934 7.23525 9.66934 7.58525L9.74668 7.69992C9.96534 8.01992 10.1273 8.09325 10.372 8.20392C10.482 8.25392 10.6187 8.31725 10.802 8.42059C11.2367 8.66925 11.2367 8.94992 11.2367 9.56459V9.63459C11.2367 9.89525 11.2113 10.1246 11.1713 10.3239C11.6829 9.68187 12.0394 8.93041 12.2131 8.12805C12.3867 7.32568 12.3729 6.49407 12.1726 5.69794C11.9722 4.90181 11.5909 4.16266 11.0582 3.53801C10.5255 2.91337 9.85585 2.42009 9.10134 2.09659C8.73268 2.34525 8.22668 2.69792 8.05001 2.93992C7.96001 3.06325 7.83201 3.69459 7.41668 3.74659C7.30868 3.75992 7.16268 3.75059 7.00801 3.74059C6.59334 3.71392 6.02668 3.67725 5.84534 4.16992C5.73001 4.48192 5.71001 5.32992 6.08268 5.76992C6.14268 5.83992 6.15401 5.96992 6.11334 6.11592C6.06001 6.30725 5.95268 6.42392 5.91868 6.44792C5.85468 6.41059 5.72668 6.26192 5.63934 6.16125C5.43068 5.91792 5.16934 5.61459 4.83201 5.52125C4.70934 5.48725 4.57468 5.45925 4.44334 5.43125C4.07734 5.35459 3.66334 5.26725 3.56668 5.06192C3.49601 4.91125 3.49668 4.70392 3.49668 4.48525C3.49668 4.20725 3.49668 3.89325 3.36068 3.58859C3.3134 3.47986 3.24391 3.38221 3.15668 3.30192ZM7.00001 13.6666C3.31801 13.6666 0.333344 10.6819 0.333344 6.99992C0.333344 3.31792 3.31801 0.333252 7.00001 0.333252C10.682 0.333252 13.6667 3.31792 13.6667 6.99992C13.6667 10.6819 10.682 13.6666 7.00001 13.6666Z" fill="#9DA3AB"/>
</svg>
